<mxfile host="65bd71144e" modified="2021-01-09T07:19:52.307Z" agent="5.0 (Windows NT 10.0; Win64; x64) AppleWebKit/537.36 (KHTML, like Gecko) Code/1.52.1 Chrome/83.0.4103.122 Electron/9.3.5 Safari/537.36" etag="lymoEJD4MI_4Bthl-dpH" version="13.10.0" type="embed">
    <diagram id="6hGFLwfOUW9BJ-s0fimq" name="Page-1">
        <mxGraphModel dx="1013" dy="767" grid="1" gridSize="10" guides="1" tooltips="1" connect="1" arrows="1" fold="1" page="1" pageScale="1" pageWidth="1654" pageHeight="1169" math="0" shadow="0">
            <root>
                <mxCell id="0"/>
                <mxCell id="1" parent="0"/>
                <mxCell id="0iTI7bKBJ6JELypw6VL1-83" style="edgeStyle=orthogonalEdgeStyle;rounded=0;orthogonalLoop=1;jettySize=auto;html=1;exitX=1;exitY=0.5;exitDx=0;exitDy=0;fontSize=13;" parent="1" source="36" edge="1">
                    <mxGeometry relative="1" as="geometry">
                        <mxPoint x="500" y="165" as="targetPoint"/>
                        <Array as="points">
                            <mxPoint x="500" y="165"/>
                        </Array>
                    </mxGeometry>
                </mxCell>
                <mxCell id="36" value="&lt;br style=&quot;font-size: 13px;&quot;&gt;②ログイン画面(login)" style="rounded=1;whiteSpace=wrap;html=1;align=center;horizontal=1;verticalAlign=top;fontSize=13;" parent="1" vertex="1">
                    <mxGeometry x="190" y="60" width="200" height="210" as="geometry"/>
                </mxCell>
                <mxCell id="37" value="&lt;span style=&quot;font-size: 13px;&quot;&gt;・マイナンバー入力&lt;/span&gt;" style="rounded=1;whiteSpace=wrap;html=1;fontSize=13;" parent="1" vertex="1">
                    <mxGeometry x="230" y="130" width="120" height="20" as="geometry"/>
                </mxCell>
                <mxCell id="38" value="&lt;span style=&quot;font-size: 13px;&quot;&gt;・パスワード入力&lt;/span&gt;" style="rounded=1;whiteSpace=wrap;html=1;fontSize=13;" parent="1" vertex="1">
                    <mxGeometry x="230" y="190" width="120" height="20" as="geometry"/>
                </mxCell>
                <mxCell id="39" style="edgeStyle=orthogonalEdgeStyle;rounded=0;orthogonalLoop=1;jettySize=auto;html=1;exitX=0.5;exitY=1;exitDx=0;exitDy=0;fontSize=13;" parent="1" source="36" target="36" edge="1">
                    <mxGeometry relative="1" as="geometry"/>
                </mxCell>
                <mxCell id="42" value="" style="edgeStyle=orthogonalEdgeStyle;rounded=0;orthogonalLoop=1;jettySize=auto;html=1;fontSize=19;" parent="1" target="41" edge="1">
                    <mxGeometry relative="1" as="geometry">
                        <mxPoint x="655.0588235294117" y="240" as="sourcePoint"/>
                    </mxGeometry>
                </mxCell>
                <mxCell id="41" value="" style="shape=ext;double=1;rounded=1;whiteSpace=wrap;html=1;align=left;fontSize=19;" parent="1" vertex="1">
                    <mxGeometry x="497.5" y="50" width="315" height="310" as="geometry"/>
                </mxCell>
                <mxCell id="0iTI7bKBJ6JELypw6VL1-79" value="相談する" style="text;html=1;align=center;verticalAlign=middle;resizable=0;points=[];autosize=1;fontSize=19;" parent="1" vertex="1">
                    <mxGeometry x="695" y="300" width="90" height="30" as="geometry"/>
                </mxCell>
                <mxCell id="xsVDTVftM3OOLQT2cAot-43" style="edgeStyle=orthogonalEdgeStyle;rounded=0;orthogonalLoop=1;jettySize=auto;html=1;entryX=0.002;entryY=0.388;entryDx=0;entryDy=0;entryPerimeter=0;fontSize=19;" parent="1" target="xsVDTVftM3OOLQT2cAot-42" edge="1">
                    <mxGeometry relative="1" as="geometry">
                        <Array as="points"/>
                        <mxPoint x="810" y="185" as="sourcePoint"/>
                    </mxGeometry>
                </mxCell>
                <mxCell id="0iTI7bKBJ6JELypw6VL1-86" value="納税相談選択&lt;br style=&quot;font-size: 13px;&quot;&gt;した場合" style="text;html=1;align=center;verticalAlign=middle;resizable=0;points=[];autosize=1;fontSize=13;" parent="1" vertex="1">
                    <mxGeometry x="400" y="105" width="90" height="40" as="geometry"/>
                </mxCell>
                <mxCell id="xsVDTVftM3OOLQT2cAot-39" value="③－①マイナンバ確認画面(login_confirm)" style="text;html=1;align=center;verticalAlign=middle;resizable=0;points=[];autosize=1;fontSize=19;" parent="1" vertex="1">
                    <mxGeometry x="455" y="95" width="370" height="30" as="geometry"/>
                </mxCell>
                <mxCell id="44" style="edgeStyle=orthogonalEdgeStyle;rounded=0;orthogonalLoop=1;jettySize=auto;html=1;exitX=1;exitY=0.5;exitDx=0;exitDy=0;fontSize=19;" parent="1" source="xsVDTVftM3OOLQT2cAot-42" edge="1">
                    <mxGeometry relative="1" as="geometry">
                        <mxPoint x="1460" y="202.17647058823536" as="targetPoint"/>
                    </mxGeometry>
                </mxCell>
                <mxCell id="xsVDTVftM3OOLQT2cAot-42" value="" style="shape=ext;double=1;rounded=1;whiteSpace=wrap;html=1;align=left;fontSize=19;" parent="1" vertex="1">
                    <mxGeometry x="920" y="125" width="350" height="155" as="geometry"/>
                </mxCell>
                <mxCell id="xsVDTVftM3OOLQT2cAot-46" value="担当者が参りますお待ちください。" style="text;html=1;align=center;verticalAlign=middle;resizable=0;points=[];autosize=1;fontSize=19;" parent="1" vertex="1">
                    <mxGeometry x="935" y="187.5" width="320" height="30" as="geometry"/>
                </mxCell>
                <mxCell id="xsVDTVftM3OOLQT2cAot-47" value="③－②担当者待ち画面(staff_wait)" style="text;html=1;align=center;verticalAlign=middle;resizable=0;points=[];autosize=1;fontSize=19;" parent="1" vertex="1">
                    <mxGeometry x="945" y="140" width="300" height="30" as="geometry"/>
                </mxCell>
                <mxCell id="xsVDTVftM3OOLQT2cAot-55" value="始めの画面に戻る" style="text;html=1;align=center;verticalAlign=middle;resizable=0;points=[];autosize=1;fontSize=19;" parent="1" vertex="1">
                    <mxGeometry x="1100" y="235" width="170" height="30" as="geometry"/>
                </mxCell>
                <mxCell id="43" value="&lt;span style=&quot;color: rgb(240, 240, 240); font-family: helvetica; font-size: 19px; font-style: normal; font-weight: 400; letter-spacing: normal; text-align: left; text-indent: 0px; text-transform: none; word-spacing: 0px; background-color: rgb(42, 42, 42); float: none; display: inline;&quot;&gt;山田太郎様&lt;br style=&quot;font-size: 19px;&quot;&gt;&lt;br style=&quot;font-size: 19px;&quot;&gt;マイナンバ&lt;br style=&quot;font-size: 19px;&quot;&gt;&lt;br style=&quot;font-size: 19px;&quot;&gt;住所&lt;br style=&quot;font-size: 19px;&quot;&gt;&lt;br style=&quot;font-size: 19px;&quot;&gt;生年月日&lt;br style=&quot;font-size: 19px;&quot;&gt;&lt;br style=&quot;font-size: 19px;&quot;&gt;&lt;/span&gt;" style="text;whiteSpace=wrap;html=1;fontSize=19;" parent="1" vertex="1">
                    <mxGeometry x="531.5" y="165" width="140" height="140" as="geometry"/>
                </mxCell>
                <mxCell id="45" value="Slack APIへ" style="text;html=1;align=center;verticalAlign=middle;resizable=0;points=[];autosize=1;fontSize=19;" parent="1" vertex="1">
                    <mxGeometry x="1305" y="231" width="120" height="30" as="geometry"/>
                </mxCell>
                <mxCell id="47" value="ユーザー情報登録&lt;br style=&quot;font-size: 19px;&quot;&gt;Create" style="rounded=1;whiteSpace=wrap;html=1;fontSize=19;" parent="1" vertex="1">
                    <mxGeometry x="497.5" y="400" width="312.5" height="240" as="geometry"/>
                </mxCell>
                <mxCell id="48" value="確認画面&lt;br style=&quot;font-size: 19px;&quot;&gt;show_admin" style="rounded=1;whiteSpace=wrap;html=1;fontSize=19;" parent="1" vertex="1">
                    <mxGeometry x="910" y="410" width="180" height="230" as="geometry"/>
                </mxCell>
                <mxCell id="70" style="edgeStyle=orthogonalEdgeStyle;rounded=0;orthogonalLoop=1;jettySize=auto;html=1;fontSize=19;" edge="1" parent="1" source="51">
                    <mxGeometry relative="1" as="geometry">
                        <mxPoint x="780" y="895" as="targetPoint"/>
                    </mxGeometry>
                </mxCell>
                <mxCell id="51" value="show_edit&lt;br style=&quot;font-size: 19px&quot;&gt;登録されている&lt;br&gt;ユーザーを表示" style="rounded=1;whiteSpace=wrap;html=1;fontSize=19;" parent="1" vertex="1">
                    <mxGeometry x="490" y="760" width="220" height="270" as="geometry"/>
                </mxCell>
                <mxCell id="52" value="" style="endArrow=classic;html=1;fontSize=19;" parent="1" edge="1">
                    <mxGeometry width="50" height="50" relative="1" as="geometry">
                        <mxPoint x="812.5" y="520" as="sourcePoint"/>
                        <mxPoint x="900" y="520" as="targetPoint"/>
                    </mxGeometry>
                </mxCell>
                <mxCell id="58" value="DBへ保存&lt;br style=&quot;font-size: 19px;&quot;&gt;store" style="rounded=1;whiteSpace=wrap;html=1;fontSize=19;" parent="1" vertex="1">
                    <mxGeometry x="1210" y="410" width="180" height="230" as="geometry"/>
                </mxCell>
                <mxCell id="59" value="" style="endArrow=classic;html=1;fontSize=19;" parent="1" edge="1">
                    <mxGeometry width="50" height="50" relative="1" as="geometry">
                        <mxPoint x="1102.5" y="519.5" as="sourcePoint"/>
                        <mxPoint x="1190" y="519.5" as="targetPoint"/>
                    </mxGeometry>
                </mxCell>
                <mxCell id="71" style="edgeStyle=orthogonalEdgeStyle;rounded=0;orthogonalLoop=1;jettySize=auto;html=1;fontSize=19;" edge="1" parent="1" source="60">
                    <mxGeometry relative="1" as="geometry">
                        <mxPoint x="1100" y="895" as="targetPoint"/>
                    </mxGeometry>
                </mxCell>
                <mxCell id="60" value="show_detail&lt;br style=&quot;font-size: 19px;&quot;&gt;ユーザー（1人）の詳細情報を表示" style="rounded=1;whiteSpace=wrap;html=1;fontSize=19;" parent="1" vertex="1">
                    <mxGeometry x="790" y="760" width="250" height="270" as="geometry"/>
                </mxCell>
                <mxCell id="72" style="edgeStyle=orthogonalEdgeStyle;rounded=0;orthogonalLoop=1;jettySize=auto;html=1;fontSize=19;" edge="1" parent="1" source="61">
                    <mxGeometry relative="1" as="geometry">
                        <mxPoint x="1350" y="895" as="targetPoint"/>
                    </mxGeometry>
                </mxCell>
                <mxCell id="61" value="edit&lt;br style=&quot;font-size: 19px;&quot;&gt;編集画面" style="rounded=1;whiteSpace=wrap;html=1;fontSize=19;" parent="1" vertex="1">
                    <mxGeometry x="1110" y="760" width="180" height="270" as="geometry"/>
                </mxCell>
                <mxCell id="73" style="edgeStyle=orthogonalEdgeStyle;rounded=0;orthogonalLoop=1;jettySize=auto;html=1;fontSize=19;" edge="1" parent="1" source="63">
                    <mxGeometry relative="1" as="geometry">
                        <mxPoint x="1570" y="895" as="targetPoint"/>
                    </mxGeometry>
                </mxCell>
                <mxCell id="63" value="edit_cofirm&lt;br style=&quot;font-size: 19px;&quot;&gt;確認画面" style="rounded=1;whiteSpace=wrap;html=1;fontSize=19;" parent="1" vertex="1">
                    <mxGeometry x="1360" y="760" width="160" height="270" as="geometry"/>
                </mxCell>
                <mxCell id="67" value="Update&lt;br style=&quot;font-size: 19px;&quot;&gt;更新" style="rounded=0;whiteSpace=wrap;html=1;fontSize=19;" vertex="1" parent="1">
                    <mxGeometry x="1580" y="870" width="120" height="60" as="geometry"/>
                </mxCell>
                <mxCell id="68" value="Destroy&lt;br style=&quot;font-size: 19px;&quot;&gt;ユーザー削除" style="rounded=0;whiteSpace=wrap;html=1;fontSize=19;" vertex="1" parent="1">
                    <mxGeometry x="865" y="1140" width="120" height="60" as="geometry"/>
                </mxCell>
                <mxCell id="75" value="" style="endArrow=classic;html=1;fontSize=19;" edge="1" parent="1">
                    <mxGeometry width="50" height="50" relative="1" as="geometry">
                        <mxPoint x="920" y="1050" as="sourcePoint"/>
                        <mxPoint x="920" y="1130" as="targetPoint"/>
                    </mxGeometry>
                </mxCell>
                <mxCell id="76" value="【ユーザー情報の編集】" style="text;html=1;strokeColor=none;fillColor=none;align=center;verticalAlign=middle;whiteSpace=wrap;rounded=0;fontSize=19;" vertex="1" parent="1">
                    <mxGeometry x="480" y="820" width="240" height="20" as="geometry"/>
                </mxCell>
                <mxCell id="78" value="【ユーザー情報の登録】" style="text;html=1;strokeColor=none;fillColor=none;align=center;verticalAlign=middle;whiteSpace=wrap;rounded=0;fontSize=19;" vertex="1" parent="1">
                    <mxGeometry x="520" y="450" width="228.75" height="20" as="geometry"/>
                </mxCell>
            </root>
        </mxGraphModel>
    </diagram>
</mxfile>